<svg width="192pt" height="192pt" style="background-color:#aaa" version="1.0" viewBox="0 0 192 192" xmlns="http://www.w3.org/2000/svg">
<g transform="translate(0 192) scale(.1 -.1)">
<path d="m1841 1848c-11-71-38-223-82-458-23-120-49-209-73-246-14-20-25-22-151-26-103-3-139-8-145-19-17-27 10-33 130-30 82 1 120-1 120-9 0-6-14-38-31-71-23-46-38-64-65-75-58-24-39-44 45-44 26 0 87-12 135-26 49-14 95-23 102-20 23 9 16 32-12 45-26 11-26 12-8 32 17 19 18 19 66-28l48-47v34c0 41-4 47-53 83-46 35-74 31-100-13-10-16-24-30-30-30-23 0-86 21-92 30-3 5 16 49 43 97 82 148 118 261 147 463 4 25 15 78 26 119 10 40 23 108 28 150 6 42 13 95 17 119 7 42 6 42-24 42s-30-1-41-72z"/>
<path d="m864 1436c-23-6-50-18-59-26-67-55-175-432-216-752-7-54-15-102-19-108-5-8-20-8-53 0-92 24-163-27-154-109 6-51 22-70 101-110 42-23 72-31 110-31 29 0 59-7 70-15s29-15 40-15c12-1 39-8 61-16s65-17 95-20c31-4 59-13 65-21 16-22 165-29 251-13 72 14 164 55 200 89 30 27 37 101 36 336-1 199-15 408-34 510-22 121-81 221-149 255-21 11-39 24-39 29 0 4-39 12-87 16-142 12-176 12-219 1zm262-55c79-21 148-120 179-255 31-139 55-689 33-767-10-36-65-67-150-84-113-24-198-15-239 26-40 40 18 92 103 93 53 1 60 18 62 132 1 121-11 136-114 142-98 6-178-6-201-29-21-21-25-82-9-139 5-19 8-42 5-50-16-50-204-94-294-70-42 11-91 48-91 70 0 28 41 50 92 50 29 0 59-4 67-9 18-11 38-4 45 16 4 8 20 97 36 197 37 222 51 285 102 451 53 172 74 214 112 230 37 16 200 13 262-4zm-78-773c16-16 16-130 0-150-7-9-32-18-55-21-26-3-55-16-74-31-17-14-41-26-53-26-22 0-23 4-23 68 1 37-3 86-7 109-8 39-7 43 15 52 35 14 183 13 197-1z"/>
<path d="m910 1274c-78-15-97-40-77-102 9-26 24-42 57-60 40-21 53-23 123-18 134 9 207 59 179 121-18 39-62 55-164 59-51 3-104 2-118 0zm210-48c30-13 38-41 14-50-39-15-163-19-194-6-33 14-57 47-43 60 20 20 176 17 223-4z"/>
<path d="m395 1011c-100-23-217-55-318-87-73-24-77-27-77-55 0-16 2-29 5-29 2 0 40 12 82 26 88 30 315 88 383 99 25 4 60 13 79 21 28 12 31 16 21 29-16 20-74 18-175-4z"/>
<path d="m0 481c0-31 8-37 125-101 89-49 491-209 587-234 260-68 465-91 813-91 154 0 306 4 338 8 57 8 57 9 57 42 0 32-1 34-27 25-16-4-111-14-213-20-202-14-334-7-630 31-260 34-353 57-565 144-44 19-117 47-162 64-80 30-156 68-263 131-28 16-53 30-55 30-3 0-5-13-5-29z"/>
<path d="m0 226c0-32 2-34 118-88 64-31 135-61 157-68 22-6 75-25 117-41 63-24 92-29 160-29l83 1-180 65c-99 36-200 72-225 80-25 9-87 38-137 65l-93 49v-34z"/>
</g>
</svg>
