<svg width="256" height="256" style="background-color:#aaa" version="1.0" viewBox="0 0 192 192" xmlns="http://www.w3.org/2000/svg"><path d="M184 7a1869 1869 0 01-15 71c-2 2-3 2-15 2-11 0-14 1-15 2-2 3 1 3 13 3l12 1-3 7c-2 5-4 6-7 8-5 2-3 4 5 4 3 0 9 1 13 3l11 2c2-1 1-4-2-5-2-1-2-1 0-3 1-2 1-2 6 3l5 4v-3c0-4 0-5-5-8-5-4-8-3-10 1l-3 3-9-3c-1-1 1-5 4-10 8-15 12-26 15-46l2-12 3-15 2-12c0-4 0-4-3-4s-3 0-4 7zM86 48l-5 3c-7 6-18 43-22 75l-2 11h-5c-9-2-17 3-16 11 1 5 3 7 10 11l11 3 7 2 4 1 7 2 9 2 7 2c1 2 16 3 25 1 7-1 16-5 20-9 3-3 3-10 3-33 0-20-1-41-3-51-2-13-8-23-15-26l-4-3-9-1c-14-2-17-2-22-1zm27 6c8 2 14 12 18 25 3 14 5 69 3 77-1 4-7 7-15 9-11 2-20 1-24-3s2-9 10-9c6 0 6-2 6-14 1-12-1-13-11-14-10 0-18 1-20 3s-3 8-1 14l1 5c-2 5-21 9-30 7-4-1-9-5-9-7 0-3 4-5 9-5l7 1c2 1 4 0 4-2l4-19c4-23 5-29 10-45 6-18 8-22 11-23 4-2 20-2 27 0zm-8 77v15l-6 2-7 3-5 3c-3 0-3 0-3-7v-11c-1-4-1-4 1-5h20z"/><path d="M91 65c-8 1-10 4-8 10l6 6c4 2 5 2 12 2 14-1 21-6 18-13-2-3-6-5-16-5H91zm21 4c3 2 4 4 1 5-3 2-16 2-19 1s-6-5-4-6c2-2 17-2 22 0zM40 91c-10 2-22 5-32 9-8 2-8 2-8 5v3l9-3a389 389 0 0146-12c3-1 3-1 2-2-2-2-7-2-17 0zM0 144c0 3 1 4 13 10a288 288 0 00140 33l33-1c6-1 6-1 6-5 0-3 0-3-3-2l-21 2c-20 1-33 1-63-3-26-3-35-6-56-14l-17-7a163 163 0 01-32-16v3zM0 169c0 4 0 4 12 9a175 175 0 0043 14h9l-18-7a1121 1121 0 00-37-14l-9-5v3z"/></svg>