<svg width="256" height="256" style="background-color:#aaa" version="1.0" viewBox="0 0 192 192" xmlns="http://www.w3.org/2000/svg"><path d="M17 39c-1 2-2 4-2 9l-5 19C0 95-2 109 1 122c5 19 20 34 38 39 7 2 21 1 28-1 10-3 23-12 28-21 1-2 1-2 2 0 5 9 18 18 28 21 8 2 21 3 28 1 18-5 33-20 38-39 3-13 1-27-8-55-3-7-5-15-5-19-1-7-4-11-8-11-6 0-8 4-7 15 1 8 2 10 8 29 5 15 5 16 5 27 1 12 0 13-2 18a37 37 0 01-51 17c-10-6-17-15-19-27-1-6 0-22 2-30 3-11 1-13-10-13s-13 2-10 13c2 8 3 24 2 30-2 12-9 21-19 27-19 10-41 3-51-17-2-5-2-6-2-18 0-11 0-12 5-27 6-19 7-21 8-29 1-11-1-15-7-15l-5 2z"/><path d="M41 111c-5 3-8 11-5 17s12 9 18 5c9-4 10-17 1-22-4-2-11-2-14 0zM137 111c-9 5-8 18 1 22 6 4 15 1 18-5s0-14-5-17c-4-2-11-2-14 0z"/></svg>