<svg width="192pt" height="192pt" style="background-color:#aaa" version="1.0" viewBox="0 0 192 192" xmlns="http://www.w3.org/2000/svg">
<g transform="translate(0 192) scale(.1 -.1)">
<path d="m173 1528c-15-16-23-43-28-88-3-36-26-123-50-195-92-275-113-414-81-549 43-183 194-338 375-386 70-19 206-14 282 9 104 33 229 125 277 207 12 19 12 19 24 0 48-82 173-174 277-207 76-23 212-28 282-9 181 48 332 203 375 386 32 135 11 274-81 549-24 72-47 159-50 195-8 73-32 110-72 110-64 0-86-45-72-147 12-85 17-104 81-293 50-151 51-158 52-275 1-112-1-124-27-176-98-196-318-269-508-168-103 55-169 149-187 266-10 64-1 219 18 298 27 113 11 135-100 135s-127-22-100-135c19-79 28-234 18-298-18-117-84-211-187-266-190-101-410-28-508 168-26 52-28 64-27 176 1 117 2 124 52 275 64 189 69 208 81 293 14 102-8 147-72 147-13 0-33-10-44-22z"/>
<path d="m409 813c-54-33-76-115-46-173 30-60 116-87 177-55 90 47 96 178 10 229-36 20-107 20-141-1z"/>
<path d="m1369 813c-85-52-78-182 11-228 61-32 147-5 177 55 30 59 8 141-47 174-36 20-107 20-141-1z"/>
</g>
</svg>
