<svg xmlns="http://www.w3.org/2000/svg" width="1200" height="1200" style="background-color:#aaa" viewBox="0 0 1200 1200" version="1.1">
	<path d="M 455.761 190.022 C 368.937 199.907, 287.644 247.038, 228.718 321.654 C 218.695 334.345, 215.748 342.871, 217.882 353 C 221.882 371.987, 240.171 383.066, 258.438 377.569 C 265.896 375.324, 270.340 371.574, 280.173 359.229 C 297.580 337.374, 319.706 316.183, 341.344 300.642 C 378.022 274.298, 425.500 256.282, 466.676 253.082 C 484.132 251.726, 493.096 246.438, 498.874 234.086 C 502.388 226.575, 502.508 215.897, 499.164 208.408 C 496.325 202.051, 489.009 194.758, 482.667 191.963 C 476.979 189.456, 467.035 188.739, 455.761 190.022 M 778.734 190.028 C 769.467 192.359, 760.826 199.652, 756.847 208.500 C 755.160 212.251, 754.599 215.373, 754.599 221 C 754.599 230.307, 757.147 236.519, 763.705 243.195 C 770.244 249.852, 776.041 252.051, 789.964 253.154 C 836.338 256.827, 886.939 277.890, 928 310.613 C 940.306 320.420, 965.156 345.639, 975.869 359.192 C 985.899 371.882, 991.123 376.110, 999.151 378.036 C 1017.940 382.544, 1036.133 369.789, 1038.554 350.413 C 1039.253 344.822, 1037.257 335.935, 1034.220 331.110 C 1024.673 315.946, 990.150 279.281, 970.465 263.402 C 928.191 229.301, 882.240 206.658, 832.909 195.619 C 810.809 190.673, 786.245 188.138, 778.734 190.028 M 404 476.003 C 351.416 489.032, 327.240 549.826, 356.470 595.521 C 363.628 606.710, 375.365 617.178, 387.693 623.368 C 407.588 633.358, 432.789 634.047, 453.895 625.179 C 471.185 617.915, 487.090 602.351, 494.617 585.332 C 499.645 573.962, 501.395 565.381, 501.313 552.500 C 501.220 537.761, 499.025 528.739, 492.425 515.960 C 482.266 496.290, 463.650 481.664, 441.590 476.023 C 431.244 473.377, 414.634 473.368, 404 476.003 M 814.021 476.068 C 771.305 487.251, 745.469 531.146, 757.036 572.886 C 765.837 604.646, 791.732 626.977, 824.426 631.001 C 858.088 635.145, 891.705 615.788, 905.665 584.224 C 913.097 567.417, 914.039 545.662, 908.095 528.054 C 899.160 501.582, 878.455 482.393, 851.976 476.046 C 840.668 473.335, 824.424 473.345, 814.021 476.068 M 247.500 603.644 C 194.238 614.912, 148.351 655.887, 131.096 707.588 C 121.790 735.473, 120.530 767.980, 127.661 796.257 C 137.449 835.072, 161.403 868.443, 195.278 890.458 C 250.053 926.055, 322.659 923.469, 375.117 884.051 C 407.698 859.569, 429.182 824.380, 436.041 784.261 C 438.224 771.491, 438.667 748.435, 436.958 736.500 C 435.343 725.222, 435.694 725.659, 428.776 726.287 C 420.220 727.062, 400.010 725.448, 388.229 723.047 C 367.669 718.857, 345.861 709.902, 328.227 698.408 C 296.853 677.958, 272.228 647.189, 259.565 612.614 C 257.427 606.776, 255.413 602.037, 255.089 602.082 C 254.765 602.126, 251.350 602.829, 247.500 603.644 M 996.435 612.614 C 983.962 646.668, 959.684 677.263, 928.721 697.946 C 918.716 704.629, 899.083 714.085, 887.164 717.961 C 868.823 723.926, 842.131 727.638, 827.270 726.291 C 822.395 725.849, 821.198 726.042, 820.695 727.352 C 817.217 736.416, 817.367 774.968, 820.941 790.500 C 829.874 829.317, 850.145 860.955, 880.883 884.051 C 933.355 923.479, 1005.942 926.058, 1060.748 890.441 C 1096.637 867.118, 1120.918 831.531, 1130.201 788.648 C 1132.061 780.052, 1132.397 775.366, 1132.397 758 C 1132.397 740.625, 1132.062 735.950, 1130.197 727.336 C 1116.730 665.120, 1072.385 619.201, 1011.500 604.429 C 1006 603.094, 1001.235 602.002, 1000.911 602.001 C 1000.587 602.001, 998.573 606.776, 996.435 612.614 M 490.275 917.654 C 484.543 919.684, 476.452 927.181, 473.289 933.392 C 469.530 940.773, 469.051 950.509, 472.055 958.469 C 475.072 966.464, 482.473 973.911, 490.319 976.846 L 496.075 979 628 979 L 759.925 979 765.681 976.846 C 773.527 973.911, 780.928 966.464, 783.945 958.469 C 788.586 946.168, 785.172 932.835, 775.050 923.734 C 765.775 915.395, 777.231 915.990, 627.572 916.079 C 512.125 916.147, 493.940 916.356, 490.275 917.654 M 1.762 1199.707 C 3.006 1199.946, 4.806 1199.937, 5.762 1199.687 C 6.718 1199.437, 5.700 1199.241, 3.500 1199.252 C 1.300 1199.263, 0.518 1199.468, 1.762 1199.707 M 12.750 1199.737 C 15.638 1199.939, 20.363 1199.939, 23.250 1199.737 C 26.138 1199.535, 23.775 1199.370, 18 1199.370 C 12.225 1199.370, 9.863 1199.535, 12.750 1199.737 " stroke="none" fill="black" fill-rule="evenodd"/>
</svg>