<?xml version="1.0" encoding="UTF-8"?>
<svg style="background-color:#aaa" version="1.1" viewBox="0 0 1200 1200" xmlns="http://www.w3.org/2000/svg">
<path d="m455.76 190.02c-86.824 9.885-168.12 57.016-227.04 131.63-10.023 12.691-12.97 21.217-10.836 31.346 4 18.987 22.289 30.066 40.556 24.569 7.458-2.245 11.902-5.995 21.735-18.34 17.407-21.855 39.533-43.046 61.171-58.587 36.678-26.344 84.156-44.36 125.33-47.56 17.456-1.356 26.42-6.644 32.198-18.996 3.514-7.511 3.634-18.189 0.29-25.678-2.839-6.357-10.155-13.65-16.497-16.445-5.688-2.507-15.632-3.224-26.906-1.941m322.97 6e-3c-9.267 2.331-17.908 9.624-21.887 18.472-1.687 3.751-2.248 6.873-2.248 12.5 0 9.307 2.548 15.519 9.106 22.195 6.539 6.657 12.336 8.856 26.259 9.959 46.374 3.673 96.975 24.736 138.04 57.459 12.306 9.807 37.156 35.026 47.869 48.579 10.03 12.69 15.254 16.918 23.282 18.844 18.789 4.508 36.982-8.247 39.403-27.623 0.699-5.591-1.297-14.478-4.334-19.303-9.547-15.164-44.07-51.829-63.755-67.708-42.274-34.101-88.225-56.744-137.56-67.783-22.1-4.946-46.664-7.481-54.175-5.591m-374.73 285.98c-52.584 13.029-76.76 73.823-47.53 119.52 7.158 11.189 18.895 21.657 31.223 27.847 19.895 9.99 45.096 10.679 66.202 1.811 17.29-7.264 33.195-22.828 40.722-39.847 5.028-11.37 6.778-19.951 6.696-32.832-0.093-14.739-2.288-23.761-8.888-36.54-10.159-19.67-28.775-34.296-50.835-39.937-10.346-2.646-26.956-2.655-37.59-0.02m410.02 0.065c-42.716 11.183-68.552 55.078-56.985 96.818 8.801 31.76 34.696 54.091 67.39 58.115 33.662 4.144 67.279-15.213 81.239-46.777 7.432-16.807 8.374-38.562 2.43-56.17-8.935-26.472-29.64-45.661-56.119-52.008-11.308-2.711-27.552-2.701-37.955 0.022m-566.52 127.58c-53.262 11.268-99.149 52.243-116.4 103.94-9.306 27.885-10.566 60.392-3.435 88.669 9.788 38.815 33.742 72.186 67.617 94.201 54.775 35.597 127.38 33.011 179.84-6.407 32.581-24.482 54.065-59.671 60.924-99.79 2.183-12.77 2.626-35.826 0.917-47.761-1.615-11.278-1.264-10.841-8.182-10.213-8.556 0.775-28.766-0.839-40.547-3.24-20.56-4.19-42.368-13.145-60.002-24.639-31.374-20.45-55.999-51.219-68.662-85.794-2.138-5.838-4.152-10.577-4.476-10.532-0.324 0.044-3.739 0.747-7.589 1.562m748.94 8.97c-12.473 34.054-36.751 64.649-67.714 85.332-10.005 6.683-29.638 16.139-41.557 20.015-18.341 5.965-45.033 9.677-59.894 8.33-4.875-0.442-6.072-0.249-6.575 1.061-3.478 9.064-3.328 47.616 0.246 63.148 8.933 38.817 29.204 70.455 59.942 93.551 52.472 39.428 125.06 42.007 179.86 6.39 35.889-23.323 60.17-58.91 69.453-101.79 1.86-8.596 2.196-13.282 2.196-30.648 0-17.375-0.335-22.05-2.2-30.664-13.467-62.216-57.812-108.14-118.7-122.91-5.5-1.335-10.265-2.427-10.589-2.428-0.324 0-2.338 4.775-4.476 10.613m-506.16 305.04c-5.732 2.03-13.823 9.527-16.986 15.738-3.759 7.381-4.238 17.117-1.234 25.077 3.017 7.995 10.418 15.442 18.264 18.377l5.756 2.154h131.92 131.92l5.756-2.154c7.846-2.935 15.247-10.382 18.264-18.377 4.641-12.301 1.227-25.634-8.895-34.735-9.275-8.339 2.181-7.744-147.48-7.655-115.45 0.068-133.63 0.277-137.3 1.575m-488.51 282.05c1.244 0.239 3.044 0.23 4-0.02s-0.062-0.446-2.262-0.435-2.982 0.216-1.738 0.455m10.988 0.03c2.888 0.202 7.613 0.202 10.5 0 2.888-0.202 0.525-0.367-5.25-0.367s-8.137 0.165-5.25 0.367" fill-rule="evenodd"/>
</svg>
