<svg width="256" height="256" style="background-color:#aaa" version="1.0" viewBox="0 0 192 192" xmlns="http://www.w3.org/2000/svg"><path d="M88 4l-6 5c-4 3-5 4-9 4-10 0-15 10-8 16 2 2 4 3 7 3 6 0 9-4 8-13-1-4-1-4 5-9l6-5c2 0 9 8 13 13l3 7h-3c-12 0-33 10-39 19l-4 4-6 3c-2 3-3 4-3 8 0 5 0 6 4 8l3 5c0 3 6 13 9 16 4 4 11 9 16 10 6 2 6 4 0 6l-9 3-5 3-7-4c-8-5-7-4-6-7 2-2 1-5-3-6-3-1-3-2-9-15l3-1c2-1 2-2 2-4-1-5-3-5-13-2s-13 5-13 8 3 6 6 6c1-1 2 0 5 7 2 5 3 9 2 11 0 4 4 11 7 12l4 3c1 3 1 3-1 5-2 3-4 6-4 9 0 2-1 2-4 0-5-2-5-2-5 6 1 8 4 15 8 16h16c6 2 12 0 17-3 1-2 3-3 3-2s6 7 8 7 2 0 1 3l-1 11c1 9 1 9 3 12 6 4 15 2 22-6 7-7 8-12 2-15-3-2-4-3-2-3 4 0 10-4 12-8s3-16 2-20c0-2 0-2 1-1l10 13-3 2-3 4c0 2 4 5 7 5l4 2 7 2c7 1 13 0 15-3 2-4-3-10-10-11-4-1-5-3-10-15-3-8-6-14-11-21-4-6-5-7-3-8 7-2 16-8 20-12l8-6c4-1 9-6 9-9 2-5-5-16-10-16l-3-4c-2-4-11-13-19-18-6-5-16-9-21-9-2 0-3-1-6-6C102 9 93 2 88 4zM77 16v12c-1 3-5 2-9-1-3-2-4-6-2-9s9-4 11-2zm33 15c1 4 2 3 1-2 0-2 0-2 3-1 10 2 20 8 29 17 9 8 10 11 11 23 0 10-1 12-7 18-9 9-23 14-41 13-21-1-35-8-42-21-2-5-2-6-2-14 1-8 1-10 4-15 3-6 9-12 16-15l22-6c3-1 4-1 6 3zm3 73v2l3-2c4-3 9-3 12 1 4 5 10 17 14 27 5 11 6 12 12 14 7 1 9 6 4 8-4 2-15 0-17-3l-4-1c-5 0-5-1-1-4l3-3-8-12-10-15-3-4c-1 0-1 1 2 6s3 6 3 15c0 12-2 17-6 20l-6 2c-2 0-3 1-3 3l-3 4-7 5c-5 4-9 11-6 11l1-1c0-4 11-13 17-14 3 0 4 0 4 3 0 5-9 14-16 16-5 1-8 0-8-5-1-6-1-14 1-18l1-5h-2c-4 0-7-2-9-5-2-2-2-3 0-7 2-2 2-5 2-9 1-5 1-5 4-6 7-2 8-7 3-12l-4-2 5-12 23 1-1 2zm-28 6l-3 4-1 2c-1 3-5 4-9 2l-7-3c-4 0-4-1-6-4l-1-5 6 3 6 3 8-3 8-3-1 4zm-17 8l6 3c3 3 3 3 2 5l-2 4c0 2 0 2 4 2 3-1 3-1 3 3 0 7-6 15-13 17-10 3-21-4-23-14 0-4 0-6 2-10s3-5 6-4c4 0 8-2 9-5 0-2 1-2 2-2l4 1z"/><path d="M75 46l-7 5c-3 3-4 4-4 8 0 9 7 14 19 14 8 0 13-2 15-7s-1-14-6-19c-4-3-12-4-17-1zm13 1c3 2 7 7 7 9l-2 2c-1-1-2 0-2 1l-12 1-12-1 3-1h3l-3-1-3-1c0-2 5-6 9-8 3-2 9-2 12-1zm8 16c0 3-5 7-8 7-9 1-18-2-20-6-1-2-1-2 14-2l14 1zM114 50c-9 5-11 11-8 18 3 6 8 8 17 8s13-1 15-5c2-3 1-10-1-15-5-9-14-12-23-6zm15 1c4 1 8 9 6 10l-12 1c-7 0-11 0-9-1 1-1 1-1-1-1h-4c-2 1-1-3 2-6 5-5 13-6 18-3zm8 16c-2 5-5 6-12 6-8 0-11-1-15-4-4-4-3-4 12-4s15 0 15 2zM72 135l-7 6c-6 5-9 5-13 2-2-2-3-2-3-1 0 3 7 8 10 8 10 1 15-1 18-7 4-6 1-11-6-8z"/></svg>