<?xml version="1.0" standalone="no"?>
<!DOCTYPE svg PUBLIC "-//W3C//DTD SVG 20010904//EN"
 "http://www.w3.org/TR/2001/REC-SVG-20010904/DTD/svg10.dtd">
<svg version="1.0" xmlns="http://www.w3.org/2000/svg"
 width="192.000000pt" height="192.000000pt" viewBox="0 0 192.000000 192.000000"
 preserveAspectRatio="xMidYMid meet" style="background-color:#aaa">
<metadata>
Created by potrace 1.16, written by Peter Selinger 2001-2019
</metadata>
<g transform="translate(0.000000,192.000000) scale(0.100000,-0.100000)"
fill="#000000" stroke="none">
<path d="M884 1876 c-12 -6 -41 -28 -66 -48 -38 -32 -53 -38 -91 -38 -99 0
-145 -97 -76 -161 23 -22 41 -29 69 -29 63 0 87 40 77 126 -5 44 -4 45 52 94
31 27 59 50 63 50 19 0 92 -78 123 -132 19 -33 35 -61 35 -64 0 -2 -14 -4 -31
-4 -122 0 -327 -102 -389 -194 -14 -20 -33 -36 -43 -36 -11 0 -34 -15 -53 -34
-29 -29 -34 -41 -34 -81 0 -41 4 -51 35 -79 19 -18 35 -39 35 -47 0 -26 57
-134 86 -163 41 -41 109 -83 165 -101 57 -19 56 -37 -4 -55 -23 -7 -63 -23
-90 -35 l-47 -23 -66 38 c-81 47 -78 44 -63 68 17 26 5 52 -30 65 -28 10 -34
20 -89 148 -2 4 9 10 23 13 22 6 26 11 23 39 -4 43 -28 45 -129 13 -97 -31
-129 -51 -129 -81 0 -28 33 -58 57 -51 15 4 24 -9 49 -72 22 -53 31 -88 28
-112 -6 -45 32 -114 64 -118 13 -2 29 -16 38 -34 15 -28 14 -31 -4 -52 -26
-29 -42 -60 -42 -85 0 -24 -6 -25 -40 -6 -48 28 -53 21 -47 -54 7 -80 36 -147
73 -163 19 -9 36 -9 70 0 34 9 56 9 89 1 64 -16 129 -4 170 33 19 16 35 26 35
21 0 -17 62 -73 81 -73 16 0 18 -4 12 -27 -5 -16 -8 -68 -8 -116 0 -85 1 -90
28 -113 56 -48 144 -26 220 54 69 75 76 126 20 152 -35 16 -43 30 -18 30 35 0
93 40 110 76 20 43 38 165 28 203 -6 24 -5 25 11 11 20 -15 100 -130 94 -134
-1 -1 -15 -10 -30 -19 -16 -10 -28 -26 -28 -37 0 -23 36 -50 69 -50 13 0 32
-7 41 -15 9 -8 41 -20 71 -26 65 -13 133 1 149 31 23 42 -30 103 -100 115 -42
7 -52 22 -99 143 -30 77 -63 139 -115 215 -38 58 -42 69 -28 73 69 22 164 79
205 123 25 27 61 54 80 60 41 14 83 56 92 93 13 51 -57 158 -104 158 -6 0 -19
17 -30 38 -21 41 -109 128 -188 185 -61 45 -163 87 -209 87 -28 0 -34 6 -60
57 -53 105 -144 176 -190 149z m-116 -118 c15 -15 16 -92 2 -119 -15 -27 -53
-24 -89 7 -30 25 -41 65 -23 90 21 31 87 45 110 22z m327 -147 c13 -40 29 -27
19 14 -6 24 -5 26 22 19 100 -23 203 -84 298 -173 82 -78 99 -116 104 -228 5
-101 -5 -128 -65 -185 -98 -93 -231 -134 -413 -125 -213 10 -350 79 -417 210
-23 46 -25 59 -21 141 3 77 8 99 33 145 31 56 97 116 168 152 33 17 103 38
212 62 37 9 48 2 60 -32z m38 -730 l-6 -24 31 23 c45 34 89 31 121 -8 41 -48
104 -168 145 -272 41 -105 57 -124 113 -135 72 -13 97 -63 43 -85 -39 -16
-149 2 -168 27 -9 12 -23 17 -47 14 -43 -3 -44 8 -5 42 l30 27 -77 117 c-42
65 -86 135 -100 156 -13 20 -28 37 -33 37 -15 0 -13 -5 20 -63 27 -49 30 -61
29 -143 -1 -123 -15 -173 -58 -201 -19 -13 -46 -23 -61 -23 -22 0 -29 -5 -33
-29 -4 -17 -16 -35 -29 -42 -13 -6 -42 -27 -66 -46 -54 -44 -92 -113 -62 -113
6 0 10 7 10 15 0 36 114 130 165 135 38 4 45 0 45 -28 0 -53 -91 -146 -156
-158 -58 -11 -81 1 -88 43 -10 63 -6 146 9 188 8 22 15 41 15 43 0 1 -11 2
-25 2 -37 0 -70 19 -88 49 -15 26 -15 30 5 67 13 25 21 59 22 94 1 53 2 54 33
61 72 15 86 70 29 115 l-33 27 25 57 25 57 113 -1 113 -1 -6 -24z m-288 -64
c-8 -20 -19 -37 -24 -37 -6 0 -13 -9 -16 -21 -10 -32 -44 -39 -81 -17 -17 10
-51 22 -74 26 -39 6 -44 11 -57 46 -7 22 -12 41 -10 43 2 1 28 -10 59 -27 l54
-30 80 34 c43 18 80 30 82 26 1 -3 -4 -23 -13 -43z m-163 -77 c10 0 33 -14 53
-31 33 -29 34 -33 20 -49 -8 -9 -15 -27 -15 -40 0 -20 3 -22 35 -17 34 6 35 5
35 -29 0 -70 -64 -156 -130 -174 -99 -27 -211 45 -226 145 -5 37 -2 54 18 93
22 43 27 47 57 44 37 -4 77 18 86 49 5 15 12 19 28 15 12 -3 30 -6 39 -6z"/>
<path d="M751 1463 c-19 -9 -52 -34 -73 -54 -32 -31 -38 -42 -38 -78 0 -90 65
-140 186 -143 84 -2 129 18 150 67 22 54 -5 143 -60 194 -34 32 -116 39 -165
14z m129 -16 c25 -13 70 -71 70 -92 0 -6 -10 -11 -22 -11 -13 1 -22 -4 -20
-11 1 -10 -27 -13 -118 -13 -73 0 -120 4 -120 10 0 6 12 11 28 11 l27 2 -27 4
c-16 2 -28 10 -28 17 0 16 46 59 85 79 36 20 91 21 125 4z m80 -162 c0 -27
-47 -65 -82 -66 -93 -5 -177 21 -197 60 -12 21 -11 21 134 21 124 0 145 -2
145 -15z"/>
<path d="M1139 1421 c-87 -55 -114 -114 -82 -178 28 -58 81 -83 176 -83 83 0
128 15 147 49 18 34 12 105 -13 152 -49 92 -139 115 -228 60z m151 -6 c38 -19
78 -94 58 -106 -7 -5 -62 -8 -123 -8 -67 0 -102 4 -90 9 18 7 18 8 -7 15 -15
4 -32 4 -37 0 -22 -13 -10 27 14 51 51 51 130 68 185 39z m75 -168 c-13 -42
-42 -57 -115 -57 -76 0 -114 11 -147 42 -42 40 -31 43 122 40 145 -3 146 -3
140 -25z"/>
<path d="M715 568 c-11 -6 -41 -31 -67 -56 -53 -51 -84 -56 -129 -23 -22 16
-29 18 -29 7 0 -22 68 -76 98 -77 98 -5 150 14 183 67 41 66 6 117 -56 82z"/>
</g>
</svg>
